<svg width="17" height="16" viewBox="0 0 17 16" fill="none" xmlns="http://www.w3.org/2000/svg">
<path d="M4.72069 9.35327C4.56736 8.92994 4.48069 8.47661 4.48069 7.99994C4.48069 7.46994 4.58736 6.96661 4.77403 6.50327L2.58403 4.89661C2.09403 5.82327 1.81403 6.87994 1.81403 7.99994C1.81403 9.11994 2.08069 10.1166 2.54736 11.0266L4.72069 9.35327Z" fill="#FFC107"/>
<path d="M4.77406 6.50337C4.80073 6.43337 4.83406 6.36671 4.86739 6.29671C4.88406 6.26337 4.90073 6.23004 4.91739 6.19671C4.95073 6.13337 4.98406 6.07004 5.02073 6.00671C5.04073 5.97337 5.06073 5.94004 5.08073 5.90671C5.20073 5.71004 5.34073 5.52337 5.49073 5.35337C5.52406 5.31337 5.56073 5.27671 5.59406 5.24004C5.63406 5.19671 5.67739 5.15671 5.72073 5.11337C5.76406 5.07337 5.80739 5.03337 5.85073 4.99671C5.89073 4.96004 5.93073 4.92671 5.97073 4.89337C6.05406 4.82671 6.13739 4.76337 6.22406 4.70337C6.25739 4.68004 6.29406 4.66004 6.32739 4.63671C6.39073 4.59671 6.45739 4.55671 6.52073 4.52004C6.56073 4.49671 6.60073 4.47671 6.64073 4.45671C6.70739 4.42004 6.77739 4.38671 6.84739 4.35671C6.88406 4.34004 6.92073 4.32337 6.95739 4.30671C7.06406 4.26337 7.17073 4.22337 7.28073 4.18671C7.29739 4.18004 7.31739 4.17671 7.33406 4.17337C7.43073 4.14337 7.52739 4.12004 7.62739 4.09671C7.66406 4.09004 7.70073 4.08337 7.74073 4.07337C7.82739 4.05671 7.91406 4.04337 8.00073 4.03337C8.03739 4.03004 8.07406 4.02337 8.11073 4.02004C8.23406 4.01004 8.35406 4.00004 8.48073 4.00004C9.50073 4.00004 10.4274 4.38337 11.1341 5.01337L13.0207 3.12671C11.8307 2.01671 10.2374 1.33337 8.48073 1.33337C8.27406 1.33337 8.07406 1.34671 7.87406 1.36337C7.82073 1.36671 7.76406 1.37337 7.71073 1.38004C7.54406 1.40004 7.38073 1.42337 7.21739 1.45671C7.18406 1.46337 7.14739 1.46671 7.11406 1.47671C6.92739 1.51671 6.74073 1.56337 6.55739 1.62004C6.50406 1.63671 6.45073 1.65337 6.39739 1.67004C6.26073 1.71671 6.12406 1.76337 5.99073 1.82004C5.93739 1.84004 5.88406 1.86004 5.83406 1.88337C5.66739 1.95671 5.50739 2.03337 5.34739 2.11671C5.29406 2.14671 5.24073 2.17671 5.18739 2.20671C5.07739 2.27004 4.96739 2.33671 4.86073 2.40337C4.79739 2.44337 4.73739 2.48337 4.67739 2.52671C4.55739 2.61004 4.43739 2.70004 4.32406 2.79004C4.25073 2.84671 4.18406 2.90671 4.11406 2.96671C4.03073 3.04004 3.94406 3.11671 3.86406 3.19337C3.80073 3.25337 3.73739 3.31671 3.67739 3.38004C3.60739 3.45337 3.54073 3.52671 3.47406 3.60337C3.38406 3.70671 3.29739 3.81337 3.21073 3.92004C3.14739 4.00337 3.08406 4.08337 3.02406 4.16671C2.96739 4.24671 2.91406 4.33004 2.86073 4.41004C2.81406 4.48337 2.77073 4.55671 2.72406 4.63337C2.67406 4.71671 2.62406 4.80004 2.57739 4.88671L4.76739 6.49337L4.77406 6.50337Z" fill="#FF3D00"/>
<path d="M10.8841 11.1933C10.8041 11.2533 10.7174 11.3133 10.6341 11.37C10.6341 11.37 10.6341 11.37 10.6307 11.37C10.5441 11.4266 10.4574 11.4766 10.3674 11.5266C10.3674 11.5266 10.3607 11.5266 10.3574 11.53C10.2707 11.5766 10.1807 11.62 10.0874 11.66C10.0807 11.66 10.0741 11.6666 10.0674 11.67C9.98072 11.7066 9.89072 11.7433 9.80072 11.7733C9.79072 11.7766 9.77739 11.7833 9.76739 11.7866C9.68405 11.8166 9.59739 11.84 9.51072 11.8633C9.49405 11.8666 9.47405 11.8733 9.45739 11.88C9.37739 11.9 9.29405 11.9166 9.21072 11.9333C9.18739 11.9366 9.16072 11.9433 9.13739 11.9466C9.05739 11.96 8.97405 11.97 8.89072 11.9766C8.86405 11.9766 8.84072 11.9833 8.81405 11.9866C8.70405 11.9966 8.59405 12 8.48405 12C8.35739 12 8.23405 11.9933 8.11072 11.98C8.07072 11.9766 8.03405 11.97 7.99405 11.9666C7.91072 11.9566 7.82739 11.9433 7.74405 11.93C7.70072 11.9233 7.65739 11.9133 7.61739 11.9033C7.53739 11.8866 7.45739 11.8633 7.37739 11.8433C7.34072 11.8333 7.30072 11.8233 7.26405 11.81C7.15739 11.7766 7.05072 11.7366 6.94739 11.6933C6.90405 11.6766 6.86405 11.6566 6.82405 11.6366C6.76072 11.6066 6.69739 11.58 6.63739 11.5466C6.58405 11.52 6.53405 11.49 6.48405 11.46C6.43739 11.4333 6.39072 11.4066 6.34739 11.3766C6.29405 11.3433 6.23739 11.3066 6.18405 11.27C6.15072 11.2466 6.12072 11.2233 6.08739 11.1966C5.88072 11.04 5.68739 10.8666 5.51405 10.6733C5.50405 10.66 5.49072 10.6466 5.48072 10.6333C5.42072 10.5666 5.36405 10.4966 5.30739 10.4233C5.30072 10.4133 5.29405 10.4033 5.28739 10.3966C5.05072 10.08 4.85739 9.72998 4.72405 9.34998L2.55072 11.0233C2.61405 11.1433 2.68072 11.2633 2.74739 11.38C2.76405 11.41 2.78405 11.44 2.80405 11.4733C3.01405 11.8166 3.25405 12.1366 3.52072 12.4333C3.55739 12.4733 3.59072 12.5133 3.62739 12.5533C3.70739 12.64 3.79072 12.7233 3.87405 12.8066C3.91739 12.85 3.96405 12.89 4.01072 12.93C4.14739 13.0533 4.28739 13.1733 4.43405 13.2833C4.50405 13.3366 4.57405 13.39 4.64405 13.44C4.72072 13.4933 4.79739 13.5466 4.87739 13.5966C4.96739 13.6566 5.06072 13.71 5.15405 13.7666C5.21739 13.8033 5.28072 13.8433 5.34739 13.88C5.50072 13.9633 5.65739 14.0366 5.81739 14.1066C5.88072 14.1333 5.94405 14.16 6.00739 14.1833C6.13072 14.2333 6.25739 14.28 6.38739 14.3233C6.44405 14.3433 6.50072 14.3633 6.55739 14.38C6.73739 14.4333 6.92072 14.4833 7.10739 14.52C7.15072 14.53 7.19072 14.5333 7.23405 14.5433C7.39072 14.5733 7.54739 14.5966 7.70739 14.6166C7.76405 14.6233 7.81739 14.63 7.87405 14.6333C8.07405 14.65 8.27739 14.6633 8.48072 14.6633C8.70405 14.6633 8.92072 14.65 9.13739 14.63C9.23405 14.62 9.32739 14.6033 9.42072 14.59C9.53739 14.5733 9.65405 14.56 9.76739 14.5366C9.89405 14.5133 10.0141 14.48 10.1374 14.4466C10.2141 14.4266 10.2941 14.41 10.3707 14.3866C10.5141 14.3433 10.6574 14.2933 10.7974 14.24C10.8474 14.22 10.8974 14.2066 10.9474 14.1866C11.1041 14.1233 11.2574 14.0533 11.4074 13.98C11.4374 13.9666 11.4641 13.9533 11.4941 13.94C11.6574 13.8566 11.8141 13.7666 11.9674 13.6733C11.9807 13.6666 11.9941 13.6566 12.0074 13.65C12.1707 13.5466 12.3274 13.44 12.4807 13.3233C12.4841 13.3233 12.4874 13.3166 12.4907 13.3166C12.6474 13.1966 12.8007 13.07 12.9474 12.94L10.8841 11.1933C10.8841 11.1933 10.8841 11.1933 10.8807 11.1933H10.8841Z" fill="#4CAF50"/>
<path d="M15.014 9.31996C15.0507 9.13996 15.0774 8.95329 15.1007 8.75663C15.104 8.72329 15.1107 8.69329 15.114 8.65996C15.134 8.44663 15.1474 8.22663 15.1474 7.99996C15.1474 7.55329 15.1007 7.08996 15.0174 6.66663H8.48071V9.33329H12.2474C12.214 9.42663 12.1774 9.51996 12.1374 9.61329C12.1174 9.65996 12.094 9.70329 12.0707 9.74663C12.0507 9.78996 12.0307 9.83663 12.0074 9.87663C11.974 9.93663 11.9407 9.99663 11.904 10.0533C11.8874 10.0766 11.874 10.1033 11.8607 10.13C11.8174 10.2 11.7707 10.2633 11.724 10.33C11.714 10.3433 11.7074 10.3566 11.6974 10.37C11.644 10.4433 11.5874 10.5133 11.5307 10.58C11.5274 10.5833 11.524 10.59 11.5207 10.5933C11.3307 10.8133 11.1207 11.0133 10.8907 11.1866L12.954 12.9333C12.854 13.03 14.504 11.7866 15.0074 9.37996C15.0107 9.35996 15.0174 9.33996 15.0207 9.31663L15.014 9.31996Z" fill="#1976D2"/>
</svg>
