<svg width="160" height="228" viewBox="0 0 160 228" fill="none" xmlns="http://www.w3.org/2000/svg">
<g opacity="0.4">
<path fill-rule="evenodd" clip-rule="evenodd" d="M-68.1998 71.1624C-96.263 75.0564 -107.283 109.861 -86.947 130.387L-54.1745 163.496C-48.8653 168.856 -45.3673 175.776 -44.1996 183.229L-36.9743 229.39C-32.5011 257.961 2.12377 269.73 21.8831 249.394L53.9953 216.345C59.1185 211.073 65.8044 207.64 73.073 206.547L118.239 199.764C146.226 195.559 156.867 160.681 136.377 140.363L103.924 108.172C98.5054 102.798 94.9272 95.8129 93.7318 88.2755L86.4083 42.111C81.8755 13.5402 47.2253 1.85276 27.5056 22.2373L-4.26206 55.0876C-9.4833 60.4877 -16.3375 63.9701 -23.7781 65.0029L-68.1998 71.1624ZM48.8054 183.106C61.0665 176.852 70.2794 165.863 74.4172 152.555C78.5551 139.247 77.279 124.711 70.8697 112.144C64.4604 99.5768 53.4429 90.0087 40.2409 85.5442C27.0389 81.0798 12.7339 82.0848 0.472813 88.3381C-11.7883 94.5914 -21.0011 105.581 -25.139 118.889C-29.2769 132.197 -28.0008 146.733 -21.5915 159.3C-15.1822 171.867 -4.16468 181.435 9.0373 185.9C22.2393 190.364 36.5443 189.359 48.8054 183.106V183.106Z" fill="white"/>
<path d="M15 114.661C16.61 113.84 18.5807 114.479 19.402 116.089L26.0364 129.098C26.3101 129.634 26.967 129.847 27.5037 129.574L40.1006 123.149C41.7108 122.328 43.6827 122.968 44.504 124.578L45.3935 126.322C46.2147 127.932 45.5744 129.904 43.9643 130.725L31.3673 137.149C30.8308 137.423 30.6177 138.08 30.8912 138.617L37.5256 151.625C38.3468 153.235 37.7076 155.207 36.0977 156.028L34.49 156.848C32.8798 157.669 30.9088 157.029 30.0876 155.419L23.4531 142.41C23.1793 141.874 22.5216 141.661 21.9849 141.934L9.388 148.359C7.77789 149.18 5.80723 148.541 4.986 146.931L4.09641 145.186C3.27522 143.576 3.91434 141.605 5.52438 140.783L18.1213 134.359C18.658 134.085 18.872 133.428 18.5983 132.891L11.9639 119.883C11.1428 118.273 11.7822 116.302 13.3923 115.481L15 114.661Z" fill="white" stroke="white" stroke-width="2.18187"/>
</g>
</svg>
