<svg width="243" height="128" viewBox="0 0 243 128" fill="none" xmlns="http://www.w3.org/2000/svg">
<g opacity="0.4">
<path fill-rule="evenodd" clip-rule="evenodd" d="M41.8003 -72.8376C13.737 -68.9436 2.71664 -34.1388 23.053 -13.6128L55.8255 19.4962C61.1347 24.8564 64.6328 31.7764 65.8004 39.2292L73.0257 85.3905C77.499 113.961 112.124 125.73 131.883 105.394L163.995 72.3451C169.118 67.0735 175.804 63.6396 183.073 62.5466L228.239 55.7637C256.226 51.5586 266.867 16.6806 246.377 -3.63744L213.924 -35.8281C208.505 -41.2018 204.927 -48.1871 203.732 -55.7245L196.408 -101.889C191.876 -130.46 157.225 -142.147 137.506 -121.763L105.738 -88.9124C100.517 -83.5123 93.6625 -80.0299 86.222 -78.9971L41.8003 -72.8376ZM158.805 39.1057C171.067 32.8524 180.279 21.863 184.417 8.55503C188.555 -4.75291 187.279 -19.2893 180.87 -31.8562C174.46 -44.4232 163.443 -53.9913 150.241 -58.4557C137.039 -62.9202 122.734 -61.9152 110.473 -55.6619C98.2117 -49.4085 88.9989 -38.4191 84.861 -25.1112C80.7232 -11.8033 81.9992 2.73312 88.4085 15.3001C94.8178 27.867 105.835 37.4352 119.037 41.8996C132.239 46.364 146.544 45.359 158.805 39.1057V39.1057Z" fill="white"/>
<path d="M125 -29.3392C126.61 -30.1601 128.581 -29.5207 129.402 -27.9108L136.036 -14.9024C136.31 -14.3656 136.967 -14.1525 137.504 -14.4262L150.101 -20.8508C151.711 -21.672 153.683 -21.0321 154.504 -19.4219L155.394 -17.6777C156.215 -16.0675 155.574 -14.0964 153.964 -13.2752L141.367 -6.85067C140.831 -6.57695 140.618 -5.91999 140.891 -5.38333L147.526 7.62506C148.347 9.23515 147.708 11.2066 146.098 12.0279L144.49 12.8479C142.88 13.6691 140.909 13.0288 140.088 11.4186L133.453 -1.58982C133.179 -2.12635 132.522 -2.33921 131.985 -2.06551L119.388 4.35906C117.778 5.18009 115.807 4.54067 114.986 2.93064L114.096 1.18639C113.275 -0.42374 113.914 -2.3952 115.524 -3.21648L128.121 -9.64106C128.658 -9.9148 128.872 -10.5721 128.598 -11.1088L121.964 -24.1172C121.143 -25.7274 121.782 -27.6981 123.392 -28.5192L125 -29.3392Z" fill="white" stroke="white" stroke-width="2.18187"/>
</g>
</svg>
