<svg width="191" height="198" viewBox="0 0 191 198" fill="none" xmlns="http://www.w3.org/2000/svg">
<g opacity="0.2">
<path fill-rule="evenodd" clip-rule="evenodd" d="M18.1241 91.2724C2.42755 103.498 9.41782 128.863 30.0222 134.432L63.2389 143.426C68.6187 144.881 73.5027 147.934 77.166 152.131L99.8518 178.13C113.894 194.222 139.812 189.38 143.909 169.899L150.567 138.239C151.629 133.189 154.378 128.728 158.41 125.509L183.469 105.514C198.996 93.1234 191.744 67.846 171.127 62.459L138.47 53.9203C133.017 52.4952 128.058 49.4304 124.345 45.1906L101.597 19.2238C87.5188 3.15332 61.6171 8.05424 57.5639 27.5513L51.0389 58.9675C49.9669 64.1315 47.1337 68.6818 42.9722 71.9234L18.1241 91.2724ZM134.239 119.514C139.298 111.359 140.612 101.344 137.892 91.6725C135.173 82.0005 128.643 73.4637 119.738 67.94C110.834 62.4163 100.285 60.3582 90.4117 62.2184C80.5385 64.0786 72.1499 69.7048 67.0914 77.8593C62.0328 86.0137 60.7187 96.0285 63.4381 105.7C66.1575 115.372 72.6877 123.909 81.592 129.433C90.4964 134.957 101.046 137.015 110.919 135.155C120.792 133.294 129.181 127.668 134.239 119.514Z" fill="white"/>
<path d="M81.68 85.6791C82.6328 84.1434 84.65 83.6707 86.1859 84.6233L98.5947 92.321C99.1067 92.6386 99.7791 92.481 100.097 91.9691L107.551 79.9528C108.504 78.4168 110.522 77.9438 112.058 78.8967L113.722 79.9288C115.258 80.8817 115.73 82.8996 114.777 84.4356L107.323 96.4519C107.006 96.9638 107.163 97.6362 107.675 97.9539L120.084 105.652C121.62 106.604 122.093 108.622 121.141 110.158L120.189 111.692C119.236 113.228 117.218 113.7 115.682 112.747L103.274 105.049C102.762 104.732 102.089 104.89 101.771 105.402L94.3169 117.418C93.364 118.954 91.3469 119.427 89.811 118.474L88.1471 117.442C86.6112 116.489 86.1378 114.471 87.0905 112.935L94.5447 100.919C94.8623 100.407 94.7053 99.7339 94.1933 99.4163L81.7844 91.7186C80.2486 90.7657 79.7758 88.7486 80.7286 87.2127L81.68 85.6791Z" fill="white" stroke="white" stroke-width="2.18187"/>
</g>
</svg>
