<svg width="498" height="79" viewBox="0 0 498 79" fill="none" xmlns="http://www.w3.org/2000/svg">
<path fill-rule="evenodd" clip-rule="evenodd" d="M79.4621 0.748599C69.3306 -2.76027 59.63 7.06868 62.9571 17.4747L68.3135 34.2547C69.1818 36.972 69.1713 39.9034 68.2834 42.614L62.7817 59.4017C59.377 69.7924 69.0275 79.7034 79.1865 76.2484L95.6966 70.6337C98.3304 69.7383 101.175 69.7302 103.814 70.6106L120.209 76.0842C130.368 79.4751 139.953 69.5564 136.538 59.1939L131.132 42.7781C130.229 40.0376 130.224 37.0704 131.117 34.3266L136.586 17.5209C139.971 7.11998 130.297 -2.76797 120.143 0.710125L103.784 6.31714C101.095 7.23901 98.1849 7.23451 95.4986 6.30432L79.4621 0.748599ZM99.6625 58.5475C104.872 58.5475 109.868 56.4289 113.551 52.6576C117.235 48.8864 119.304 43.7715 119.304 38.4382C119.304 33.1049 117.235 27.99 113.551 24.2188C109.868 20.4475 104.872 18.3289 99.6625 18.3289C94.4532 18.3289 89.4572 20.4475 85.7737 24.2188C82.0902 27.99 80.0208 33.1049 80.0208 38.4382C80.0208 43.7715 82.0902 48.8864 85.7737 52.6576C89.4572 56.4289 94.4532 58.5475 99.6625 58.5475Z" fill="white"/>
<path d="M99.5918 29.3867C100.731 29.3867 101.654 30.3103 101.654 31.4492V35.6621C101.654 36.1563 102.055 36.5574 102.549 36.5576H106.567C107.722 36.5576 108.658 37.4932 108.658 38.6475C108.658 39.8018 107.722 40.7383 106.567 40.7383H102.549C102.055 40.7385 101.654 41.1387 101.654 41.6328V45.8457C101.654 46.9847 100.731 47.9082 99.5918 47.9082C98.4528 47.9082 97.5293 46.9847 97.5293 45.8457V41.6328C97.5292 41.1387 97.1289 40.7385 96.6348 40.7383H92.6162C91.4618 40.7383 90.5254 39.8018 90.5254 38.6475C90.5255 37.4932 91.4619 36.5576 92.6162 36.5576H96.6348C97.1289 36.5574 97.5293 36.1563 97.5293 35.6621V31.4492C97.5294 30.3103 98.4529 29.3867 99.5918 29.3867Z" fill="white" stroke="white" stroke-width="1.79022"/>
<path d="M189.784 35.6123C188.985 26.0495 180.987 23.6588 175.606 23.6588C167.899 23.6588 161.283 28.5126 161.283 36.3368C161.355 42.06 165.718 45.0303 171.098 46.6965C178.442 49.2321 181.423 50.1739 181.423 53.5789C181.496 56.2593 178.951 58.2154 175.97 58.2154C174.152 58.2154 170.444 57.346 170.08 53.0717H160.556C161.283 62.707 169.644 65.8946 175.824 65.8946C184.186 65.8946 191.093 60.6785 190.948 52.4922C190.875 43.9436 183.968 42.06 177.569 40.3213C173.789 39.2346 170.88 37.8581 170.808 35.3225C170.808 33.3665 172.334 31.338 175.534 31.338C179.242 31.338 180.332 33.5114 180.405 35.6123H189.784Z" fill="white"/>
<path d="M235.897 47.9281C236.697 40.9733 234.879 34.743 230.008 29.7442C226.299 25.9046 221.064 23.6588 215.102 23.6588C203.033 23.6588 194.162 33.5838 194.162 44.8854C194.162 55.9696 202.96 65.8946 215.248 65.8946C219.392 65.8946 223.318 64.7355 226.663 62.4172C230.008 60.1714 232.843 56.8389 234.734 52.4197H224.918C223.1 55.6798 219.974 57.7807 215.321 57.7807C209.867 57.8531 204.196 54.3033 203.76 47.9281H235.897ZM203.905 40.6835C204.269 36.7714 208.122 31.7003 215.175 31.7003C222.155 31.6278 226.154 36.9163 226.518 40.6835H203.905Z" fill="white"/>
<path d="M271.701 50.1739C270.247 53.434 266.903 56.9838 260.941 56.9838C254.179 56.9838 249.162 51.9126 249.162 44.7405C249.162 41.2631 250.398 38.0755 252.434 35.9021C254.76 33.6563 257.451 32.4247 260.941 32.4972C266.176 32.4972 270.029 35.4674 271.701 39.6693H281.444C279.118 29.9616 270.611 23.6588 260.577 23.6588C248.653 23.6588 239.564 33.0043 239.564 44.7405C239.564 56.1145 248.289 65.8946 260.941 65.8946C271.265 65.8946 279.19 59.0123 281.444 50.1739H271.701Z" fill="white"/>
<path d="M323.929 24.8904H314.405V46.8414C314.405 52.4922 312.078 56.9838 305.243 56.9838C298.482 57.0562 296.518 52.4197 296.518 46.5516V24.8904H286.994V48.9423C286.994 55.8971 289.466 65.8222 302.553 65.8946C309.751 65.9671 313.314 62.4897 314.986 59.3745V64.663H323.929V24.8904Z" fill="white"/>
<path d="M331.892 64.663H341.417V43.2191C341.417 36.3368 344.834 33.2216 351.523 33.2216H351.959V23.6588C345.924 23.7312 342.653 26.5566 340.908 30.1064V24.8904H331.892V64.663Z" fill="white"/>
<path d="M356.341 19.5294H365.866V11.0532H356.341V19.5294ZM356.341 64.663H365.866V24.8904H356.341V64.663Z" fill="white"/>
<path d="M376.447 64.663H385.972V32.2074H392.806V24.8904H385.972V11.0532H376.447V24.8904H369.831V32.2074H376.447V64.663Z" fill="white"/>
<path d="M396.928 19.5294H406.453V11.0532H396.928V19.5294ZM396.928 64.663H406.453V24.8904H396.928V64.663Z" fill="white"/>
<path d="M424.592 9.81689C426.165 9.81689 427.441 11.0925 427.441 12.6655V18.4839C427.441 19.1664 427.995 19.7192 428.677 19.7192H434.226C435.82 19.7192 437.113 21.0119 437.113 22.606C437.113 24.2002 435.82 25.4927 434.226 25.4927H428.677C427.995 25.4927 427.441 26.0463 427.441 26.729V32.5474C427.441 34.1204 426.165 35.396 424.592 35.396C423.019 35.3959 421.745 34.1203 421.745 32.5474V26.729C421.745 26.0464 421.191 25.4928 420.508 25.4927H414.958C413.364 25.4926 412.072 24.2002 412.072 22.606C412.072 21.0119 413.364 19.7193 414.958 19.7192H420.508C421.191 19.7191 421.744 19.1664 421.745 18.4839V12.6655C421.745 11.0926 423.019 9.81703 424.592 9.81689Z" fill="white" stroke="white" stroke-width="2.47239"/>
</svg>
