<svg width="32" height="32" viewBox="0 0 32 32" fill="none" xmlns="http://www.w3.org/2000/svg">
<path fill-rule="evenodd" clip-rule="evenodd" d="M7.3956 0.31755C3.0837 -1.14107 -1.0448 2.94478 0.371177 7.27053L2.65081 14.2459C3.02037 15.3754 3.01588 16.594 2.63801 17.7208L0.29654 24.6994C-1.15249 29.0187 2.95469 33.1387 7.27831 31.7025L14.3049 29.3685C15.4258 28.9962 16.6365 28.9929 17.7595 29.3589L24.737 31.6342C29.0606 33.0438 33.1401 28.9206 31.6868 24.613L29.3858 17.789C29.0016 16.6498 28.9994 15.4164 29.3794 14.2758L31.7071 7.28972C33.1475 2.9661 29.0308 -1.14427 24.7093 0.301556L17.7467 2.63237C16.6023 3.01559 15.3639 3.01371 14.2206 2.62704L7.3956 0.31755ZM15.9927 24.3443C18.2098 24.3443 20.336 23.4636 21.9037 21.8959C23.4714 20.3282 24.3521 18.202 24.3521 15.985C24.3521 13.7679 23.4714 11.6417 21.9037 10.074C20.336 8.50631 18.2098 7.62559 15.9927 7.62559C13.7757 7.62559 11.6495 8.50631 10.0818 10.074C8.51409 11.6417 7.63337 13.7679 7.63337 15.985C7.63337 18.202 8.51409 20.3282 10.0818 21.8959C11.6495 23.4636 13.7757 24.3443 15.9927 24.3443Z" fill="#1CA8DD"/>
<path d="M16.0985 12.0305C16.6013 12.0814 16.994 12.5065 16.994 13.0227V14.5061C16.994 14.7822 17.2179 15.0061 17.494 15.0061H18.9774C19.5279 15.0061 19.9745 15.4527 19.9745 16.0032C19.9745 16.5537 19.5279 17.0002 18.9774 17.0002H17.494C17.2179 17.0002 16.994 17.2241 16.994 17.5002V18.9836C16.994 19.5341 16.5474 19.9807 15.9969 19.9807C15.4464 19.9807 14.9999 19.5341 14.9999 18.9836V17.5002C14.9999 17.2241 14.776 17.0002 14.4999 17.0002H13.0165C12.5003 17.0002 12.0752 16.6075 12.0243 16.1047L12.0194 16.0032L12.0243 15.9016C12.0751 15.3988 12.5002 15.0061 13.0165 15.0061H14.4999C14.776 15.0061 14.9999 14.7822 14.9999 14.5061V13.0227C14.9999 12.4722 15.4464 12.0256 15.9969 12.0256L16.0985 12.0305Z" fill="#1CA8DD" stroke="#1CA8DD"/>
</svg>
