<svg width="268" height="51" viewBox="0 0 268 51" fill="none" xmlns="http://www.w3.org/2000/svg">
<path fill-rule="evenodd" clip-rule="evenodd" d="M43.512 0.49595C36.8001 -1.8286 30.3737 4.68285 32.5778 11.5766L36.1262 22.693C36.7015 24.4931 36.6945 26.4351 36.1063 28.2308L32.4616 39.3522C30.206 46.2358 36.5993 52.8016 43.3294 50.5128L54.2669 46.7932C56.0118 46.2 57.8963 46.1946 59.6444 46.7779L70.5055 50.404C77.2357 52.6504 83.5857 46.0795 81.3235 39.2146L77.7419 28.3395C77.1438 26.524 77.1403 24.5583 77.7319 22.7406L81.3551 11.6072C83.5974 4.71684 77.1892 -1.83369 70.4624 0.470461L59.6245 4.18498C57.8431 4.7957 55.9154 4.79271 54.1358 4.17648L43.512 0.49595ZM56.8942 38.7864C60.3453 38.7864 63.655 37.3828 66.0952 34.8845C68.5355 32.3861 69.9064 28.9976 69.9064 25.4644C69.9064 21.9312 68.5355 18.5427 66.0952 16.0444C63.655 13.546 60.3453 12.1425 56.8942 12.1425C53.4432 12.1425 50.1335 13.546 47.6932 16.0444C45.253 18.5427 43.8821 21.9312 43.8821 25.4644C43.8821 28.9976 45.253 32.3861 47.6932 34.8845C50.1335 37.3828 53.4432 38.7864 56.8942 38.7864Z" fill="#1CA8DD"/>
<path d="M56.8477 19.4685C57.6022 19.4685 58.2139 20.0802 58.2139 20.8347V23.6257C58.214 23.9531 58.4793 24.2184 58.8066 24.2185H61.4688C62.2335 24.2185 62.8535 24.8385 62.8535 25.6033C62.8535 26.368 62.2335 26.988 61.4688 26.988H58.8066C58.4793 26.9882 58.2139 27.2534 58.2139 27.5808V30.3718C58.2139 31.1264 57.6022 31.738 56.8477 31.738C56.0931 31.738 55.4815 31.1264 55.4814 30.3718V27.5808C55.4814 27.2535 55.216 26.9882 54.8887 26.988H52.2266C51.4618 26.988 50.8418 26.368 50.8418 25.6033C50.8418 24.8385 51.4618 24.2185 52.2266 24.2185H54.8887C55.2159 24.2183 55.4813 23.953 55.4814 23.6257V20.8347C55.4814 20.0801 56.0931 19.4685 56.8477 19.4685Z" fill="#1CA8DD" stroke="#1CA8DD" stroke-width="1.18598"/>
<path d="M108.877 24.0133C108.464 19.0844 104.342 17.8522 101.569 17.8522C97.5966 17.8522 94.1863 20.354 94.1863 24.3867C94.2238 27.3366 96.4723 28.8676 99.2455 29.7264C103.031 31.0333 104.567 31.5187 104.567 33.2737C104.604 34.6553 103.293 35.6635 101.756 35.6635C100.819 35.6635 98.9082 35.2154 98.7208 33.0123H93.8115C94.1863 37.9786 98.496 39.6216 101.681 39.6216C105.991 39.6216 109.551 36.9331 109.476 32.7136C109.439 28.3075 105.879 27.3366 102.581 26.4405C100.632 25.8804 99.1331 25.1709 99.0956 23.864C99.0956 22.8558 99.8826 21.8103 101.531 21.8103C103.443 21.8103 104.005 22.9305 104.042 24.0133H108.877Z" fill="#1CA8DD"/>
<path d="M132.644 30.3612C133.056 26.7765 132.12 23.5653 129.609 20.9888C127.697 19.0097 124.999 17.8522 121.926 17.8522C115.705 17.8522 111.133 22.9678 111.133 28.7929C111.133 34.506 115.668 39.6216 122.001 39.6216C124.137 39.6216 126.161 39.0241 127.885 37.8292C129.609 36.6717 131.07 34.954 132.045 32.6763H126.985C126.049 34.3566 124.437 35.4395 122.039 35.4395C119.228 35.4768 116.305 33.6471 116.08 30.3612H132.644ZM116.155 26.6272C116.342 24.6108 118.329 21.997 121.964 21.997C125.561 21.9596 127.623 24.6855 127.81 26.6272H116.155Z" fill="#1CA8DD"/>
<path d="M151.099 31.5187C150.349 33.1991 148.625 35.0287 145.552 35.0287C142.067 35.0287 139.481 32.4149 139.481 28.7182C139.481 26.9259 140.118 25.2829 141.168 24.1627C142.367 23.0051 143.754 22.3704 145.552 22.4077C148.251 22.4077 150.237 23.9387 151.099 26.1044H156.12C154.921 21.1008 150.537 17.8522 145.365 17.8522C139.219 17.8522 134.535 22.6691 134.535 28.7182C134.535 34.5806 139.032 39.6216 145.552 39.6216C150.874 39.6216 154.959 36.0743 156.12 31.5187H151.099Z" fill="#1CA8DD"/>
<path d="M178.018 18.487H173.109V29.8011C173.109 32.7136 171.91 35.0287 168.387 35.0287C164.902 35.0661 163.89 32.6763 163.89 29.6517V18.487H158.981V30.884C158.981 34.4686 160.255 39.5842 167.001 39.6216C170.711 39.6589 172.547 37.8666 173.409 36.261V38.9868H178.018V18.487Z" fill="#1CA8DD"/>
<path d="M182.122 38.9868H187.032V27.9341C187.032 24.3867 188.793 22.7811 192.241 22.7811H192.466V17.8522C189.355 17.8895 187.669 19.3458 186.769 21.1755V18.487H182.122V38.9868Z" fill="#1CA8DD"/>
<path d="M194.724 15.7238H199.633V11.355H194.724V15.7238ZM194.724 38.9868H199.633V18.487H194.724V38.9868Z" fill="#1CA8DD"/>
<path d="M205.087 38.9868H209.997V22.2583H213.519V18.487H209.997V11.355H205.087V18.487H201.677V22.2583H205.087V38.9868Z" fill="#1CA8DD"/>
<path d="M215.644 15.7238H220.553V11.355H215.644V15.7238ZM215.644 38.9868H220.553V18.487H215.644V38.9868Z" fill="#1CA8DD"/>
<path d="M229.902 10.7183C230.713 10.7183 231.37 11.3753 231.37 12.186V15.1851C231.37 15.5368 231.656 15.8218 232.008 15.8218H234.868C235.69 15.822 236.355 16.4885 236.355 17.3101C236.355 18.1315 235.69 18.7972 234.868 18.7974H232.008C231.656 18.7974 231.37 19.0832 231.37 19.4351V22.4341C231.37 23.2446 230.713 23.9018 229.902 23.9019C229.092 23.9019 228.435 23.2446 228.435 22.4341V19.4351C228.435 19.0832 228.149 18.7974 227.797 18.7974H224.937C224.115 18.7973 223.449 18.1316 223.449 17.3101C223.449 16.4884 224.115 15.8218 224.937 15.8218H227.797C228.149 15.8218 228.434 15.5368 228.435 15.1851V12.186C228.435 11.3752 229.092 10.7183 229.902 10.7183Z" fill="#1CA8DD" stroke="#1CA8DD" stroke-width="1.27433"/>
</svg>
